<?xml version="1.0" encoding="UTF-8" standalone="no"?>
<svg width="749px" height="219px" viewBox="0 0 749 219" version="1.1" xmlns="http://www.w3.org/2000/svg" xmlns:xlink="http://www.w3.org/1999/xlink" xmlns:sketch="http://www.bohemiancoding.com/sketch/ns">
    <!-- Generator: Sketch 3.4 (15575) - http://www.bohemiancoding.com/sketch -->
    <title>Untitled</title>
    <desc>Created with Sketch.</desc>
    <defs></defs>
    <g id="Page-1" stroke="none" stroke-width="1" fill="none" fill-rule="evenodd" sketch:type="MSPage">
        <g id="bridge" sketch:type="MSLayerGroup" transform="translate(-26.000000, -153.000000)">
            <path d="M0,0 L400,0 L800,0 L800,300 L800,600 L400,600 L0,600 L0,300 L0,0 Z" id="Shape" fill="#FEFEFE" sketch:type="MSShapeGroup"></path>
            <path d="M29,369 C27,368 26,367 26,366 C27,365 29,366 31,367 C34,369 35,369 37,367 C41,365 43,365 46,367 C49,369 49,369 53,367 C56,365 57,365 60,367 C63,369 64,369 68,367 C72,365 72,365 75,367 C79,369 79,369 82,367 C85,365 87,365 91,367 C93,369 94,369 96,367 C100,365 102,365 105,367 C108,369 108,369 112,367 C115,365 116,365 119,367 C122,369 123,369 127,367 C131,365 131,365 134,367 C138,369 138,369 141,367 C144,365 146,365 150,367 C152,369 153,369 155,367 C159,365 161,365 164,367 C167,369 167,369 171,367 C174,365 174,365 178,367 C182,369 183,369 186,367 C189,365 190,365 193,367 C197,369 197,369 200,367 C203,365 205,365 209,367 C211,369 212,369 214,367 C218,365 220,365 223,367 C226,369 226,369 230,367 C233,365 233,365 237,367 C241,369 242,369 245,367 C248,365 249,365 252,367 C255,369 256,369 260,367 C264,365 264,365 267,367 C271,369 271,369 274,367 C277,365 279,365 283,367 C285,369 286,369 288,367 C292,365 294,365 297,367 C300,369 300,369 304,367 C307,365 307,365 311,367 C315,369 315,369 319,367 C322,365 323,365 326,367 C330,369 330,369 333,367 C336,365 338,365 342,367 C344,369 345,369 347,367 C351,365 353,365 356,367 C359,369 359,369 363,367 C366,365 366,365 370,367 C374,369 375,369 378,367 C381,365 382,365 385,367 C389,369 389,369 392,367 C395,365 397,365 401,367 C403,369 404,369 406,367 C410,365 412,365 415,367 C418,369 418,369 422,367 C425,365 425,365 429,367 C433,369 434,369 437,367 C440,365 441,365 444,367 C447,369 448,369 452,367 C456,365 456,365 459,367 C463,369 463,369 466,367 C469,365 471,365 475,367 C477,369 478,369 480,367 C484,365 486,365 489,367 C492,369 492,369 496,367 C499,365 500,365 503,367 C506,369 507,369 511,367 C515,365 515,365 518,367 C522,369 522,369 525,367 C528,365 530,365 534,367 C536,369 537,369 539,367 C543,365 545,365 548,367 C551,369 551,369 555,367 C558,365 558,365 562,367 C566,369 567,369 570,367 C573,365 574,365 577,367 C581,369 581,369 584,367 C587,365 589,365 593,367 C595,369 596,369 599,367 C602,365 604,365 608,367 C610,369 611,369 613,367 C617,365 619,365 622,367 C625,369 625,369 629,367 C632,365 632,365 636,367 C640,369 640,369 644,367 C647,365 648,365 651,367 C655,369 655,369 658,367 C661,365 663,365 667,367 C669,369 670,369 672,367 C676,365 678,365 681,367 C684,369 685,369 687,367 C691,365 693,365 696,367 C699,369 699,369 703,367 C706,365 707,365 710,367 C713,369 714,369 718,367 C722,365 722,365 725,367 C729,369 729,369 732,367 C735,365 737,365 741,367 C743,369 744,369 746,367 C750,365 752,365 755,367 C758,369 759,369 761,367 C763,366 765,366 766,366 C767,365 771,367 774,369 C775,369 774,370 774,371 C773,371 772,371 769,370 C766,368 765,368 762,370 C759,372 758,372 755,370 C752,368 750,368 747,370 C744,372 743,372 740,370 C737,368 735,368 732,370 C729,372 728,372 725,370 C722,368 721,368 718,370 C714,372 714,372 710,370 C707,368 706,368 703,370 C700,372 699,372 695,370 C692,368 691,368 688,370 C685,372 684,372 681,370 C678,368 676,368 673,370 C670,372 669,372 666,370 C663,368 661,368 658,370 C655,372 654,372 651,370 C648,368 647,368 644,370 C640,372 640,372 636,370 C633,368 632,368 629,370 C626,372 625,372 622,370 C619,368 617,368 614,370 C611,372 610,372 607,370 C604,368 602,368 599,370 C596,372 595,372 592,370 C589,368 588,368 585,370 C581,372 580,372 577,370 C574,368 573,368 570,370 C566,372 566,372 562,370 C559,368 558,368 555,370 C552,372 551,372 548,370 C545,368 543,368 540,370 C537,372 536,372 533,370 C530,368 528,368 525,370 C522,372 521,372 518,370 C515,368 514,368 511,370 C507,372 507,372 503,370 C500,368 499,368 496,370 C493,372 492,372 489,370 C486,368 484,368 481,370 C478,372 477,372 474,370 C471,368 469,368 466,370 C463,372 462,372 459,370 C456,368 455,368 452,370 C448,372 447,372 444,370 C441,368 440,368 437,370 C434,372 433,372 430,370 C426,368 425,368 422,370 C419,372 418,372 415,370 C414,369 412,369 411,369 C410,369 408,369 407,370 C404,372 403,372 400,370 C397,368 396,368 392,370 C388,372 388,372 385,370 C382,368 381,368 378,370 C374,372 374,372 370,370 C367,368 366,368 363,370 C360,372 359,372 356,370 C353,368 351,368 348,370 C345,372 344,372 341,370 C338,368 336,368 333,370 C330,372 329,372 326,370 C323,368 322,368 319,370 C315,372 315,372 311,370 C308,368 307,368 304,370 C301,372 300,372 297,370 C294,368 292,368 289,370 C286,372 285,372 282,370 C279,368 277,368 274,370 C271,372 270,372 267,370 C264,368 263,368 260,370 C256,372 255,372 252,370 C249,368 248,368 245,370 C241,372 241,372 237,370 C234,368 233,368 230,370 C227,372 226,372 223,370 C222,369 220,369 219,369 C218,369 216,369 215,370 C212,372 211,372 208,370 C205,368 204,368 200,370 C196,372 196,372 193,370 C190,368 189,368 186,370 C182,372 182,372 178,370 C175,368 174,368 171,370 C168,372 167,372 164,370 C161,368 159,368 156,370 C153,372 152,372 149,370 C146,368 144,368 141,370 C138,372 137,372 134,370 C131,368 130,368 127,370 C123,372 123,372 119,370 C116,368 115,368 112,370 C109,372 109,372 105,370 C101,368 100,368 97,370 C94,372 93,372 90,370 C89,369 87,369 86,369 C85,369 83,369 82,370 C79,372 78,372 75,370 C72,368 71,368 68,370 C64,372 63,372 60,370 C57,368 56,368 53,370 C50,372 49,372 45,370 C42,368 41,368 39,370 C35,372 34,372 29,369 L29,369 Z M29,361 C27,360 26,359 26,358 C26,357 28,357 32,359 C34,361 35,361 36,360 C38,359 38,356 39,330 C39,302 39,300 41,298 C42,297 45,296 47,296 C49,295 50,294 50,293 C51,291 50,290 49,289 C47,288 47,287 49,287 C50,287 51,286 51,285 C51,283 51,283 52,283 C52,283 53,283 53,285 C53,286 53,287 54,287 C55,287 56,287 56,288 C56,288 55,289 54,289 C53,289 53,291 53,293 C53,295 53,296 56,296 C59,296 64,300 65,303 C65,306 71,314 77,318 C83,323 93,326 101,326 C106,326 107,325 107,324 C106,321 110,317 113,316 C117,315 122,318 123,321 C124,323 125,325 126,325 C129,325 156,315 165,310 C198,294 224,269 238,240 C244,228 244,224 245,208 C245,194 245,193 248,183 C251,174 251,174 249,172 C247,171 247,171 249,170 C250,170 250,168 251,167 C251,166 251,166 252,166 C253,166 254,166 254,167 C253,168 254,170 255,170 C257,171 257,171 255,172 C253,174 253,175 257,185 C259,190 260,194 260,199 C260,203 260,205 261,205 C262,205 263,203 263,199 C263,194 263,194 266,190 C268,188 271,186 271,187 C272,187 274,188 276,191 C280,195 281,196 281,200 C281,203 281,205 282,205 C283,205 283,203 283,198 C283,194 284,190 286,184 C290,174 290,173 288,173 C287,173 287,172 287,171 C287,170 287,170 288,170 C289,170 290,169 290,168 C290,165 292,165 292,168 C292,169 293,170 294,170 C294,170 295,170 295,171 C295,172 294,173 294,173 C292,173 292,176 296,185 C298,193 299,195 299,206 L299,218 L337,218 L378,218 C381,218 382,218 382,213 C381,208 383,206 386,207 C387,207 388,208 388,209 C389,211 389,211 392,210 C395,209 395,208 394,207 C393,206 395,202 396,202 C397,201 399,206 398,208 C398,209 399,210 400,210 C403,211 403,211 404,209 C404,207 407,206 409,207 C409,208 410,211 410,213 C411,217 411,218 413,218 L454,218 L494,218 L494,205 C493,194 494,192 497,183 C500,174 500,174 498,172 C496,171 496,171 498,170 C499,170 499,168 500,167 C500,166 500,166 501,166 C502,166 503,166 503,167 C503,168 503,170 504,170 C506,171 506,171 504,172 C502,174 502,175 506,184 C508,190 509,194 509,199 C509,203 509,205 510,205 C511,205 512,203 511,199 C511,195 512,194 515,190 C517,188 519,187 520,187 C521,187 523,188 525,191 C529,195 530,196 530,200 C530,203 530,205 531,205 C532,205 533,203 533,198 C533,193 533,189 536,184 C539,174 539,173 537,173 C536,173 536,172 536,171 C536,170 536,170 537,170 C538,170 539,169 539,168 C539,165 540,165 541,167 C542,168 543,170 543,170 C545,171 545,171 543,172 C541,173 541,175 545,185 C547,193 548,194 548,208 C548,222 548,223 550,231 C565,270 602,303 650,319 C666,325 669,325 669,323 C669,320 673,316 677,316 C681,316 686,320 686,323 C686,325 686,325 691,325 C707,325 721,317 727,304 C731,297 733,296 737,296 C739,296 740,295 740,293 C740,291 739,289 738,289 C736,288 736,287 738,287 C739,287 740,285 740,284 C740,282 742,282 742,284 C743,285 743,286 744,287 C746,288 746,288 744,289 C743,289 743,291 743,293 C743,295 743,296 745,296 C747,296 749,297 751,298 L754,301 L754,330 L754,358 L756,360 C758,361 759,361 761,359 C763,358 765,358 766,358 C767,357 771,359 774,361 C775,361 774,362 774,363 C773,364 772,363 770,362 C767,360 766,360 761,362 C758,364 758,364 755,362 C752,360 750,360 747,362 C744,364 743,364 740,362 C737,360 735,360 732,362 C730,364 729,364 726,362 C722,360 720,360 717,362 C715,364 714,364 710,362 C707,360 706,360 703,362 C699,364 698,364 696,362 C693,360 692,360 687,362 C684,364 684,364 681,362 C678,360 676,360 673,362 C670,364 669,364 666,362 C663,360 661,360 658,362 C656,364 655,364 651,362 C648,360 647,360 644,362 C640,364 640,364 636,362 C633,360 632,360 629,362 C625,364 624,364 622,362 C619,360 618,360 613,362 C610,364 610,364 607,362 C604,360 602,360 599,362 C596,364 596,364 593,362 C588,360 587,360 584,362 C582,364 581,364 577,362 C574,360 573,360 570,362 C566,364 565,364 563,362 C560,360 559,360 554,362 C551,364 551,364 548,362 C545,360 543,360 540,362 C537,364 536,364 533,362 C530,360 528,360 525,362 C523,364 522,364 519,362 C515,360 513,360 510,362 C508,364 507,364 503,362 C500,360 499,360 496,362 C492,364 491,364 489,362 C486,360 485,360 480,362 C477,364 477,364 474,362 C473,361 471,361 470,361 C469,361 467,361 466,362 C463,364 463,364 460,362 C455,360 454,360 451,362 C449,364 448,364 444,362 C441,360 440,360 437,362 C433,364 432,364 430,362 C427,360 426,360 421,362 C418,364 418,364 415,362 C414,361 412,361 411,361 C410,361 408,361 407,362 C404,364 404,364 401,362 C396,360 395,360 392,362 C390,364 389,364 385,362 C382,360 381,360 378,362 C374,364 373,364 371,362 C368,360 367,360 362,362 C359,364 359,364 356,362 C353,360 351,360 348,362 C345,364 344,364 341,362 C338,360 336,360 333,362 C331,364 330,364 326,362 C323,360 322,360 319,362 C315,364 315,364 311,362 C308,360 307,360 304,362 C300,364 299,364 297,362 C294,360 293,360 289,362 C286,364 285,364 282,362 C278,360 277,360 274,362 C271,364 271,364 268,362 C263,360 262,360 259,362 C257,364 256,364 252,362 C249,360 248,360 245,362 C241,364 240,364 238,362 C235,360 234,360 229,362 C226,364 226,364 223,362 C222,361 220,361 219,361 C218,361 216,361 215,362 C212,364 212,364 209,362 C204,360 203,360 200,362 C198,364 197,364 193,362 C190,360 189,360 186,362 C182,364 182,364 178,362 C175,360 174,360 171,362 C167,364 166,364 164,362 C161,360 159,360 156,362 C153,364 152,364 149,362 C146,360 144,360 141,362 C139,364 138,364 135,362 C131,360 129,360 126,362 C124,364 123,364 119,362 C116,360 115,360 112,362 C108,364 107,364 105,362 C102,360 100,360 97,362 C94,364 93,364 90,362 C87,360 85,360 82,362 C79,364 79,364 76,362 C71,360 70,360 67,362 C65,364 64,364 60,362 C57,360 56,360 53,362 C49,364 48,364 46,362 C43,360 42,360 38,362 C34,364 34,364 29,361 L29,361 Z M54,358 C57,357 58,357 60,358 C61,360 62,359 62,331 L62,302 L59,300 C57,298 55,298 52,298 C48,298 46,298 44,300 C42,302 42,302 42,316 L42,331 L51,331 C56,331 60,331 60,332 C60,332 56,333 51,333 L42,333 L42,338 L42,343 L49,343 C56,343 59,344 56,345 C55,345 51,346 48,346 C41,346 39,347 46,348 C49,348 51,348 51,349 C51,350 49,350 46,350 C42,351 42,351 42,354 C42,356 42,357 45,359 C48,361 49,360 54,358 L54,358 Z M71,358 C72,358 74,358 76,359 C78,361 79,361 81,359 C83,358 85,358 86,358 C87,358 89,358 91,359 C93,361 94,361 96,359 C100,357 102,357 105,359 C107,361 108,361 111,359 C115,357 117,357 120,359 C123,361 123,361 126,359 C129,357 131,357 135,359 C137,361 138,361 140,359 C142,358 144,358 145,358 C146,358 148,358 150,359 C152,361 153,361 155,359 C157,358 159,358 160,358 C161,358 163,358 165,359 C167,361 168,361 170,359 C174,357 176,357 179,359 C182,361 182,361 185,359 C188,357 190,357 194,359 C197,361 198,361 200,359 C203,357 205,357 209,359 C211,361 212,361 214,359 C218,357 220,357 224,359 C226,361 227,361 229,359 C233,357 235,357 238,359 C240,361 241,361 244,359 C248,357 250,357 253,359 C256,361 256,361 259,359 C262,357 264,357 268,359 C270,361 271,361 273,359 C275,358 277,358 278,358 C279,358 281,358 283,359 C285,361 286,361 288,359 C292,357 294,357 297,359 C303,362 304,361 303,344 C303,336 303,329 302,327 C301,326 300,326 272,326 C241,326 240,326 240,330 C240,331 241,331 270,332 C290,332 301,332 301,333 C301,334 290,334 270,334 L240,335 L240,338 L240,342 L256,342 C268,342 272,342 271,343 C271,344 267,344 255,344 C242,345 239,345 240,346 C240,347 244,348 267,348 C285,348 295,348 295,349 C295,350 285,350 267,350 L240,351 L240,353 C240,355 239,356 238,356 C237,356 237,354 237,345 L237,335 L151,335 L65,335 L65,348 L65,361 L67,359 C68,358 70,358 71,358 L71,358 Z M318,359 C321,357 323,357 327,359 C329,361 330,361 332,359 C334,358 336,358 337,358 C338,358 340,358 342,359 C344,361 345,361 347,359 C351,357 353,357 357,359 C359,361 360,361 362,359 C366,357 368,357 371,359 C374,361 374,361 377,359 C380,357 382,357 386,359 C389,361 390,361 392,359 C395,357 397,357 401,359 C403,361 404,361 406,359 C408,358 410,358 411,358 C412,358 414,358 416,359 C418,361 419,361 421,359 C425,357 427,357 430,359 C432,361 433,361 436,359 C440,357 442,357 445,359 C448,361 448,361 451,359 C454,357 456,357 460,359 C462,361 463,361 465,359 C469,357 471,357 474,359 C477,361 478,361 481,359 C484,358 485,356 485,356 C486,354 473,349 462,346 C427,336 376,335 339,344 C319,348 298,357 308,358 C309,358 311,358 312,359 C313,360 314,361 315,361 C316,361 317,360 318,359 L318,359 Z M497,358 C500,357 501,357 504,359 C507,361 507,361 510,359 C513,357 515,357 519,359 C521,361 522,361 524,359 C528,357 530,357 534,359 C536,361 537,361 539,359 C543,357 546,357 548,359 C552,362 553,361 553,345 C553,336 552,329 551,327 C550,326 549,326 521,326 C490,326 489,326 489,330 C489,331 490,331 508,332 C521,332 528,332 528,333 C528,334 521,334 508,334 L489,335 L489,338 L489,341 L513,342 C528,342 537,342 537,343 C537,344 528,344 513,344 C492,344 489,345 489,346 C489,347 491,347 506,348 C517,348 524,348 524,349 C524,350 517,350 506,350 L489,351 L489,355 C489,361 490,361 497,358 L497,358 Z M569,359 C572,357 574,357 578,359 C581,361 582,361 584,359 C587,357 589,357 593,359 C595,361 596,361 598,359 C602,357 604,357 608,359 C610,361 611,361 613,359 C617,357 619,357 622,359 C624,361 625,361 628,359 C632,357 634,357 637,359 C640,361 640,361 643,359 C646,357 648,357 652,359 C654,361 655,361 658,359 C661,357 663,357 667,359 C669,361 670,361 672,359 C674,358 676,358 677,358 C678,358 680,358 682,359 C684,361 685,361 687,359 C691,357 693,357 696,359 C699,361 699,361 702,359 C703,358 706,358 707,358 C708,358 710,358 711,359 C714,361 714,361 717,359 C720,357 722,357 725,359 L728,361 L728,348 L728,335 L642,335 L556,335 L555,343 L555,355 C555,358 555,358 558,358 C559,357 561,358 563,359 C565,361 567,361 569,359 L569,359 Z M748,359 L752,357 L751,329 C751,297 751,298 742,298 C736,297 735,298 733,300 C731,302 731,303 731,316 L731,331 L740,331 C746,331 750,331 750,332 C750,332 746,333 740,333 L731,333 L731,338 L731,343 L739,343 C745,343 747,343 746,344 C746,345 743,345 738,345 C730,346 727,348 736,348 C739,348 741,348 741,349 C741,350 739,351 736,351 L731,351 L731,355 L731,359 L734,358 C736,357 737,357 739,359 C743,361 743,361 748,359 L748,359 Z M315,347 L311,341 L306,336 L306,344 L306,352 L310,350 C313,349 315,348 315,347 L315,347 Z M486,345 C486,341 485,338 485,338 C485,338 483,340 480,342 L475,347 L480,349 C482,350 484,351 485,351 C485,351 486,348 486,345 L486,345 Z M325,339 C323,336 321,335 320,335 L320,340 L320,346 L325,345 L330,343 L325,339 L325,339 Z M472,335 C471,335 469,336 467,339 L463,343 L467,345 L472,346 L472,341 L472,335 L472,335 Z M316,335 L312,335 L309,335 L312,339 L316,344 L316,340 L316,335 L316,335 Z M484,335 L479,335 L475,335 L475,339 L475,344 L479,340 C481,337 484,335 484,335 L484,335 Z M459,339 C459,334 457,333 453,337 L450,340 L454,341 C456,342 458,342 458,342 C458,342 459,341 459,339 L459,339 Z M339,341 C340,340 340,340 338,337 C335,334 334,334 334,338 C334,342 335,342 339,341 L339,341 Z M331,337 C331,335 330,335 328,335 L325,335 L328,337 C329,338 330,340 330,340 C330,340 331,338 331,337 L331,337 Z M350,339 C351,339 351,338 350,337 C347,334 345,334 345,337 C345,339 345,340 347,339 L350,339 L350,339 Z M447,337 C447,334 445,334 442,336 L440,338 L443,339 C447,340 448,340 447,337 L447,337 Z M465,337 L467,335 L464,335 C462,335 462,335 462,337 L462,340 C462,340 463,338 465,337 L465,337 Z M375,335 C382,335 382,335 369,335 C357,335 356,335 356,336 C356,337 356,338 361,337 C364,337 371,336 375,335 L375,335 Z M437,336 C437,335 434,335 423,335 L409,335 L421,336 C437,338 437,338 437,336 L437,336 Z M452,335 L451,335 C450,335 450,335 450,336 C450,337 450,337 451,337 C451,337 452,336 452,335 L452,335 Z M342,336 C342,335 341,335 340,335 C340,335 340,335 340,336 L341,337 L342,336 L342,336 Z M399,331 C398,326 397,325 394,327 C393,327 393,329 393,331 C393,334 393,335 396,335 C399,335 399,334 399,331 L399,331 Z M109,331 C108,330 105,330 86,330 C68,330 65,330 65,331 C65,332 68,333 87,333 C107,333 109,332 109,331 L109,331 Z M237,331 C237,330 230,330 180,330 C130,330 123,330 122,331 C120,332 127,333 178,333 C229,333 237,332 237,331 L237,331 Z M390,331 C390,329 389,329 348,329 C313,329 306,329 306,330 L306,332 C307,332 325,333 348,333 C389,333 390,332 390,331 L390,331 Z M486,331 C486,329 485,329 444,329 C402,329 402,329 402,331 C402,332 402,333 444,333 C485,333 486,332 486,331 L486,331 Z M671,331 C669,330 662,330 612,330 L555,330 L555,332 C556,332 582,333 614,333 C665,333 672,332 671,331 L671,331 Z M728,331 C728,330 724,330 706,330 C688,330 685,330 684,331 C682,332 685,333 705,333 C724,333 728,332 728,331 L728,331 Z M116,328 L120,326 C122,327 122,323 119,320 C117,318 117,318 117,320 C117,321 116,322 115,322 C113,322 110,325 110,327 C110,328 111,331 113,331 L116,328 L116,328 Z M682,328 C684,326 684,323 682,324 C682,324 681,324 680,323 C679,323 678,322 677,321 C676,321 676,320 676,320 C677,317 675,319 673,321 C670,324 670,327 672,326 C673,326 674,326 674,327 C675,328 676,329 677,329 C678,329 679,329 679,330 C679,331 680,331 682,328 L682,328 Z M73,324 C73,322 73,321 74,322 C74,322 75,323 75,324 C75,326 75,327 79,327 C83,327 84,325 79,323 C78,322 73,319 70,316 L65,310 L65,318 L65,327 L69,327 C72,327 73,326 73,324 L73,324 Z M159,325 L155,325 C150,326 149,327 154,327 C157,327 159,326 159,325 L159,325 Z M170,324 C170,323 169,322 167,323 L163,323 C162,323 162,324 162,325 C162,326 163,327 166,327 C169,327 170,326 170,324 L170,324 Z M180,323 C180,320 179,319 178,320 C176,320 175,321 174,321 C172,321 172,322 172,324 C172,326 172,327 176,327 C179,327 180,326 180,323 L180,323 Z M191,321 C191,318 190,316 190,316 C190,316 188,316 186,317 C183,318 183,319 183,323 C183,326 183,327 187,327 L191,327 L191,321 L191,321 Z M201,319 L201,311 L197,312 C194,314 194,314 194,320 L194,327 L197,327 L201,327 L201,319 L201,319 Z M212,315 C212,303 212,303 206,307 C204,309 204,309 204,318 L204,327 L208,327 L212,327 L212,315 L212,315 Z M223,310 C223,293 223,293 217,299 C215,301 215,302 215,314 L215,327 L219,327 L223,327 L223,310 L223,310 Z M233,304 L233,281 L230,285 C228,287 226,290 226,290 C225,290 225,297 225,309 L225,327 L229,327 L233,327 L233,304 L233,304 Z M239,325 C241,323 242,323 243,323 C244,323 244,317 244,289 L244,255 L242,263 L237,273 C236,276 236,280 236,301 L236,327 C236,327 238,326 239,325 L239,325 Z M557,301 C557,277 556,275 554,271 C553,269 551,264 550,260 L548,253 L548,288 C548,317 548,323 549,323 C550,323 551,323 553,324 C554,326 555,326 556,326 C556,326 557,315 557,301 L557,301 Z M568,309 L568,291 L564,287 C563,285 561,283 560,282 L560,304 L560,327 L564,327 L568,327 L568,309 L568,309 Z M579,314 L579,302 L575,298 L571,294 L571,310 L571,327 L575,327 L579,327 L579,314 L579,314 Z M589,318 C589,309 588,309 586,307 C580,303 581,303 581,315 L581,327 L585,327 L589,327 L589,318 L589,318 Z M600,320 C600,314 599,314 596,312 C594,311 592,311 592,311 L592,319 L592,327 L596,327 L600,327 L600,320 L600,320 Z M610,322 C610,319 609,318 606,317 C604,316 602,316 602,316 L602,321 L602,327 L606,327 L610,327 L610,322 L610,322 Z M621,324 C621,322 620,321 618,321 C612,319 613,319 613,323 C613,326 613,327 617,327 C620,327 621,326 621,324 L621,324 Z M631,325 C631,324 630,323 629,323 L626,323 C624,322 624,323 624,324 C624,326 624,327 627,327 C629,327 631,326 631,325 L631,325 Z M641,326 C640,325 634,325 634,325 C634,326 635,327 638,327 C640,327 642,326 641,326 L641,326 Z M718,324 C718,322 718,321 719,322 C719,322 720,323 720,324 C719,326 720,327 723,327 L728,327 L728,318 L728,310 L722,315 C720,318 716,321 713,323 C708,325 708,327 714,327 C717,327 718,326 718,324 L718,324 Z M392,325 C392,324 394,324 396,324 C397,324 399,324 399,325 C399,325 415,326 443,326 C482,326 486,325 490,324 L493,322 L493,280 L494,239 L396,239 L299,239 L299,280 L299,322 L302,324 C305,325 311,325 348,325 L392,325 L392,325 Z M149,323 C149,322 151,322 153,322 C157,322 158,322 158,320 C159,317 161,317 161,319 C162,321 162,321 164,321 C166,320 166,320 165,319 C164,317 166,316 168,318 C169,319 170,318 170,316 C170,314 170,313 171,314 C171,314 172,315 172,316 C171,319 172,319 176,317 C179,316 180,316 180,311 C180,309 179,307 179,307 C179,307 174,309 167,312 C161,315 152,319 147,321 C137,324 137,325 143,324 C146,324 148,323 149,323 L149,323 Z M651,323 C641,320 629,315 621,310 L613,306 L613,311 C613,316 613,316 616,317 C620,319 621,319 621,316 C621,313 622,313 623,316 C624,317 624,317 625,317 C627,316 628,319 627,319 C626,320 626,320 628,321 C630,321 630,321 631,319 C631,316 634,316 634,319 C634,322 636,323 641,322 L645,322 C645,323 648,324 653,324 C655,324 655,324 651,323 L651,323 Z M296,306 L296,289 L290,289 L285,289 L290,289 C293,289 295,290 295,291 C295,292 293,293 290,293 L286,293 L286,307 C286,316 285,322 285,322 C284,322 283,297 283,293 L272,293 C262,293 261,292 261,291 C261,290 262,290 272,290 C279,290 284,289 283,289 C283,289 277,288 271,288 L260,288 L260,302 L259,316 L271,316 C281,316 283,316 283,317 C283,318 281,319 271,319 C261,319 260,319 260,320 C260,321 259,321 258,321 C257,321 257,317 257,307 L256,293 L251,293 L247,293 L247,308 L247,323 L271,323 L296,323 L296,306 L296,306 Z M545,306 L545,289 L542,288 C540,288 538,288 536,289 C535,289 535,289 539,289 C542,289 544,290 544,291 C544,292 542,293 539,293 L535,293 L535,307 C535,316 534,322 534,322 C533,322 533,316 533,307 L533,293 L521,293 C511,293 510,292 510,291 C510,290 511,290 521,290 C528,290 533,289 532,289 C532,288 520,288 511,288 L509,289 L509,302 L509,316 L520,316 C530,316 532,316 532,317 C532,318 530,319 520,319 C510,319 509,319 509,320 C509,321 508,321 507,321 C506,321 506,317 506,307 L505,293 L500,293 L496,293 L496,308 L496,323 L520,323 L545,323 L545,306 L545,306 Z M190,313 C190,313 191,310 191,308 C191,303 192,300 193,303 C194,304 194,303 196,299 C197,296 198,294 198,294 C198,294 195,295 192,298 C188,300 185,303 184,303 C183,303 184,304 186,306 C188,307 189,309 188,309 C187,310 187,310 185,308 L183,306 L183,311 L183,316 L186,314 C188,313 190,313 190,313 L190,313 Z M610,311 L610,307 L607,309 C604,312 604,309 607,306 C608,305 609,303 608,303 C608,303 606,301 603,300 C600,298 597,295 596,294 C593,292 593,292 596,300 C599,305 599,306 599,304 C599,303 600,302 601,302 C601,302 602,304 602,307 C602,313 601,312 609,315 C609,315 610,313 610,311 L610,311 Z M201,303 C201,297 203,296 204,301 L204,305 L207,303 C211,300 211,300 209,297 C207,294 208,292 211,296 C212,297 212,298 212,297 C212,297 214,292 216,285 C218,279 219,274 219,274 C219,274 215,277 211,282 C205,288 202,292 201,296 C199,299 197,303 196,306 L194,311 L197,309 C200,307 200,306 201,303 L201,303 Z M593,300 C590,291 589,289 581,281 L572,273 L574,278 C575,281 576,286 578,290 L580,298 L582,296 C585,293 586,294 583,298 L581,300 L584,302 C588,305 589,305 589,301 C589,299 589,298 590,298 C591,298 592,299 592,302 C592,306 592,307 594,308 C595,309 596,309 597,309 C597,309 596,305 593,300 L593,300 Z M222,283 L222,275 L220,284 C215,298 215,297 219,294 C222,290 222,290 222,283 L222,283 Z M574,286 L571,277 L571,284 C571,290 571,291 573,293 C574,295 576,296 576,295 C576,295 575,291 574,286 L574,286 Z M256,289 C256,289 254,288 252,288 L248,288 L248,287 C248,286 250,286 252,286 L257,286 L257,276 L257,267 L252,266 C246,266 246,264 252,264 L257,264 L257,252 L257,240 L252,240 L247,240 L247,249 L247,259 L250,259 C252,259 254,259 254,260 C254,261 252,262 250,262 L247,262 L247,275 L247,289 L251,290 C256,290 257,290 256,289 L256,289 Z M506,290 C506,289 504,289 503,289 C501,289 499,288 498,288 C495,287 497,286 501,286 L506,286 L506,276 L506,267 L501,266 C495,266 495,264 501,264 C503,264 506,263 506,263 C506,262 503,262 501,262 L496,262 L496,275 L495,289 L500,290 L505,290 L506,290 L506,290 Z M229,281 C233,276 233,276 232,266 L232,256 L229,261 L225,266 L228,268 C231,271 231,273 227,271 C226,270 225,270 225,270 L225,278 L225,287 L229,281 L229,281 Z M568,278 C568,270 567,269 565,271 C562,272 562,271 564,268 L567,266 L563,260 L560,255 L560,265 C560,276 560,276 563,281 L567,287 C567,287 568,283 568,278 L568,278 Z M283,276 L283,267 L271,267 L260,267 L260,276 L260,286 L272,286 L284,286 L283,276 L283,276 Z M296,276 L296,267 L291,267 L286,267 L286,276 L286,286 L291,286 L296,286 L296,276 L296,276 Z M533,276 L533,267 L521,267 L509,267 L509,276 L509,286 L521,286 L533,286 L533,276 L533,276 Z M545,274 L545,262 L540,262 C537,262 535,262 535,263 C535,263 536,264 537,264 L541,264 C542,265 539,267 536,267 C535,267 535,267 535,276 L535,286 L540,286 L545,286 L545,274 L545,274 Z M238,264 C241,256 243,247 244,239 L245,232 L242,239 C240,243 238,247 237,248 C236,249 236,253 236,260 L236,270 L238,264 L238,264 Z M552,242 L548,233 L548,238 C549,246 551,256 554,263 L556,269 L556,260 C557,251 556,251 552,242 L552,242 Z M284,263 C284,262 279,261 272,261 C266,261 261,261 261,260 C261,259 266,259 272,259 C278,259 284,258 284,258 C284,257 278,257 272,257 L260,257 L260,260 L260,264 L272,264 C279,264 284,263 284,263 L284,263 Z M296,263 C296,262 293,262 291,262 C288,262 286,262 286,263 C286,263 288,264 291,264 C293,264 296,263 296,263 L296,263 Z M533,263 C533,262 528,262 521,262 C513,262 509,262 509,263 C509,263 513,264 521,264 C528,264 533,263 533,263 L533,263 Z M296,247 L296,236 L290,236 L288,236 C293,237 293,239 289,239 L286,240 L286,249 L286,259 L291,259 L296,259 L296,247 L296,247 Z M506,249 L506,240 L501,240 L496,240 L496,249 L496,259 L501,259 L506,259 L506,249 L506,249 Z M533,258 C533,257 527,257 521,257 C514,257 509,257 509,258 C509,258 514,259 521,259 C527,259 533,258 533,258 L533,258 Z M545,247 L545,236 L539,236 L537,236 C542,237 542,239 538,239 L535,240 L535,249 L535,259 L540,259 L545,259 L545,247 L545,247 Z M265,253 C265,251 264,250 264,250 C263,250 263,251 263,253 C263,254 263,256 264,256 C264,256 265,254 265,253 L265,253 Z M273,253 C273,251 272,250 272,250 C271,250 271,251 271,253 C271,254 271,256 272,256 C272,256 273,254 273,253 L273,253 Z M281,253 C281,251 280,250 280,250 C279,250 279,251 279,253 C279,254 279,255 280,255 C280,255 281,254 281,253 L281,253 Z M514,253 C514,251 513,250 513,250 C512,250 512,251 512,253 C512,254 512,256 513,256 C513,256 514,254 514,253 L514,253 Z M522,253 C522,251 521,250 521,250 C520,250 520,251 520,253 C520,254 520,256 521,256 C521,256 522,254 522,253 L522,253 Z M530,252 C530,251 529,250 529,250 C528,250 528,251 528,253 C528,254 528,255 529,255 C529,255 530,253 530,252 L530,252 Z M264,247 C265,247 266,247 266,248 C267,249 268,249 269,248 C271,246 275,247 275,249 C275,249 275,249 276,248 C277,247 279,247 279,247 C279,247 281,247 282,248 C283,250 284,250 284,247 L284,245 L272,245 L260,245 L260,247 C260,249 260,250 261,248 C262,247 263,247 264,247 L264,247 Z M513,247 C514,247 515,247 515,248 L518,248 C521,246 524,247 524,249 C524,249 524,249 525,248 C526,247 528,247 528,247 C528,247 530,247 531,248 C532,250 533,250 533,247 L533,245 L521,245 L509,245 L509,247 C509,249 509,250 510,248 C511,247 512,247 513,247 L513,247 Z M284,241 C284,240 279,240 272,240 C264,240 260,240 260,241 C260,241 264,242 272,242 C279,242 284,241 284,241 L284,241 Z M533,241 C533,240 528,240 521,240 C513,240 509,240 509,241 C509,241 513,242 521,242 C528,242 533,241 533,241 L533,241 Z M253,236 C247,235 247,234 253,234 L257,234 L257,224 L257,214 L251,214 L246,214 L247,225 L247,236 L252,236 L257,236 L253,236 L253,236 Z M278,236 L265,236 C262,236 265,236 272,236 L278,236 L278,236 Z M502,236 C496,235 496,234 502,234 L506,234 L506,224 L506,214 L501,214 L496,214 L496,225 L496,237 L501,236 L502,236 L502,236 Z M527,236 L514,236 C511,236 514,236 521,236 L527,236 L527,236 Z M494,235 C494,234 460,234 396,234 C332,234 299,234 299,235 C299,235 332,236 396,236 C460,236 494,235 494,235 L494,235 Z M264,225 C264,216 265,212 266,216 C267,218 267,219 272,219 C276,219 277,218 277,216 C277,215 277,215 278,215 C279,215 279,218 279,224 C280,232 280,234 281,233 C283,233 283,231 283,223 L284,214 L272,214 L260,214 L260,224 C260,233 260,234 262,234 C263,234 264,233 264,225 L264,225 Z M277,232 C277,230 276,230 272,230 C267,230 267,230 267,232 C267,233 267,234 272,234 C276,234 277,233 277,232 L277,232 Z M296,217 L296,201 L291,201 C286,202 286,202 286,205 L286,208 L271,207 L257,207 L257,202 L256,197 L251,198 L250,198 C255,199 254,201 250,201 C247,202 247,202 247,206 L247,211 L251,211 C254,211 257,210 257,209 C258,208 259,208 259,209 C260,210 263,211 272,211 C280,211 283,210 284,209 C284,208 285,208 285,209 C285,210 288,211 290,211 C293,211 295,211 295,212 C295,213 293,214 290,214 L286,214 L286,224 L286,234 L291,234 L296,234 L296,217 L296,217 Z M513,225 C513,216 514,212 515,216 C516,218 516,219 521,219 C525,219 525,218 526,216 C527,212 529,216 529,225 C529,233 529,234 530,233 C532,233 532,232 532,223 L533,214 L521,214 L509,214 L509,224 C509,233 509,234 511,234 C512,234 513,233 513,225 L513,225 Z M526,232 C526,230 525,230 521,230 C516,230 516,230 516,232 C516,233 516,234 521,234 C525,234 526,233 526,232 L526,232 Z M545,217 L545,201 L540,201 C535,202 535,202 535,205 L535,208 L520,207 L506,207 L506,202 L505,197 L500,198 L499,198 C504,199 503,202 497,202 C496,202 496,202 496,206 L496,211 L500,211 C503,211 506,210 506,209 C507,208 508,208 508,209 C509,210 512,211 521,211 C529,211 532,210 533,209 C533,208 534,208 534,209 C534,210 537,211 539,211 C542,211 544,211 544,212 C544,213 542,214 539,214 L535,214 L535,224 L535,234 L540,234 L545,234 L545,217 L545,217 Z M317,230 C299,229 299,228 317,228 L330,228 L330,224 L330,221 L314,221 L299,221 L299,226 L299,231 L314,230 L330,230 L317,230 L317,230 Z M337,225 C337,220 336,219 334,220 C332,220 332,221 332,225 C331,230 331,231 334,231 C336,231 337,230 337,225 L337,225 Z M369,230 C351,229 351,228 369,228 L382,228 L382,224 L382,221 L361,221 L340,221 L340,224 L340,228 L346,228 C355,228 354,229 346,230 C342,230 349,230 361,230 L369,230 L369,230 Z M385,215 C385,212 385,214 385,220 L385,226 L385,215 L385,215 Z M404,224 C404,215 402,212 396,212 C390,212 389,215 389,223 L389,231 L396,231 L404,231 L404,224 L404,224 Z M407,215 C407,212 407,214 407,220 L407,226 L407,215 L407,215 Z M442,230 L421,230 C415,230 420,230 432,230 L442,230 L442,230 Z M460,225 C460,220 459,220 458,220 C456,220 456,220 456,225 C456,230 456,231 458,231 C459,231 460,230 460,225 L460,225 Z M486,230 L470,230 C466,230 469,230 478,230 L486,230 L486,230 Z M274,227 L269,227 C267,227 268,227 272,227 L274,227 L274,227 Z M453,224 L453,221 L432,221 L411,221 L411,224 L411,228 L432,228 L453,228 L453,224 L453,224 Z M494,224 L494,221 L478,221 L463,221 L463,224 L463,228 L478,228 L494,228 L494,224 L494,224 Z M523,227 L518,227 C516,227 517,227 521,227 L523,227 L523,227 Z M277,222 C277,221 275,221 272,221 C268,221 267,221 267,222 C267,223 268,224 272,224 C275,224 277,223 277,222 L277,222 Z M526,222 C526,221 524,221 521,221 C517,221 516,221 516,222 C516,223 517,224 521,224 C524,224 526,223 526,222 L526,222 Z M267,201 C267,198 267,198 271,199 C276,199 276,199 277,202 C277,205 277,205 277,201 C277,199 277,197 276,197 C273,195 269,195 267,196 C266,197 265,205 266,205 C266,205 267,203 267,201 L267,201 Z M274,203 C274,202 273,202 271,202 C269,202 269,202 269,203 C269,204 269,205 271,205 C273,205 274,204 274,203 L274,203 Z M520,199 C525,199 525,199 526,202 C526,205 526,205 526,201 C527,197 525,196 520,196 C515,196 514,196 515,201 L515,202 C516,198 516,198 520,199 L520,199 Z M523,203 C523,202 522,202 520,202 C518,202 518,202 518,203 C518,204 518,205 520,205 C522,205 523,204 523,203 L523,203 Z M295,195 C295,191 291,179 290,182 C290,182 289,186 288,189 L286,194 L289,195 C294,195 294,197 289,198 C285,198 285,198 290,198 L296,199 L295,195 L295,195 Z M544,195 C544,191 540,179 539,182 C539,182 538,186 537,189 L535,194 L538,195 C543,195 543,197 538,198 C534,198 534,198 539,198 L545,199 L544,195 L544,195 Z M254,187 L252,179 L249,187 L247,194 L251,195 L256,195 C257,195 256,191 254,187 L254,187 Z M503,187 L501,179 L498,187 L496,194 L500,195 L505,195 C506,195 505,191 503,187 L503,187 Z M275,193 L273,191 C271,190 271,190 269,191 C268,193 268,193 271,193 L275,193 L275,193 Z M524,193 L522,191 C520,190 520,190 518,191 C517,193 517,193 520,193 L524,193 L524,193 Z M261,188 C261,187 262,182 265,177 C267,171 269,165 269,161 C270,153 273,151 273,158 C273,161 274,167 278,176 C280,183 282,189 282,189 C281,191 280,189 272,170 C271,167 271,168 267,178 C263,188 261,192 261,188 L261,188 Z M510,188 C510,187 511,182 514,177 C516,171 518,165 518,161 C519,153 522,151 522,158 C522,161 523,167 527,175 C529,183 531,189 531,189 C530,191 528,188 521,170 C520,167 520,168 516,178 C512,188 510,192 510,188 L510,188 Z M46,316 C46,307 47,304 52,304 C56,304 58,307 58,316 L58,324 L52,324 L46,324 L46,316 L46,316 Z M55,315 C55,310 54,307 53,307 C50,304 49,307 49,315 L49,322 L52,322 L55,322 L55,315 L55,315 Z M736,315 C736,306 737,304 741,304 C745,304 747,306 747,315 L747,324 L741,324 L736,324 L736,315 L736,315 Z M744,314 C744,306 743,305 739,307 C738,307 738,309 738,315 L738,322 L741,322 L744,322 L744,314 L744,314 Z M261,305 L261,295 L265,295 L269,295 L269,305 L270,315 L265,315 L260,315 L261,305 L261,305 Z M267,309 C267,307 266,306 265,306 C264,306 264,307 264,309 C264,311 264,313 265,313 C266,313 267,311 267,309 L267,309 Z M267,299 C267,298 266,298 265,298 C264,298 264,298 264,299 C264,299 264,300 265,300 C266,300 267,299 267,299 L267,299 Z M271,305 C271,299 271,295 272,295 C272,295 273,299 273,305 C273,311 272,315 272,315 C271,315 271,311 271,305 L271,305 Z M274,305 L274,295 L278,295 L282,295 L282,305 L283,315 L278,315 L273,315 L274,305 L274,305 Z M280,309 C280,307 279,306 278,306 C277,306 277,307 277,309 C277,311 277,313 278,313 C279,313 280,311 280,309 L280,309 Z M280,299 C280,298 279,298 278,298 C277,298 277,298 277,299 C277,299 277,300 278,300 C279,300 280,299 280,299 L280,299 Z M510,313 L510,304 L510,295 L514,295 L518,295 L518,305 L519,315 L514,315 C512,315 510,314 510,313 L510,313 Z M516,309 C516,307 515,306 514,306 C513,306 513,307 513,309 C513,311 513,313 514,313 C515,313 516,311 516,309 L516,309 Z M516,299 C516,298 515,298 514,298 C513,298 513,298 513,299 C513,299 513,300 514,300 C515,300 516,299 516,299 L516,299 Z M520,305 C520,299 520,295 521,295 C521,295 522,299 522,305 C522,311 521,315 521,315 C520,315 520,311 520,305 L520,305 Z M523,305 L523,295 L527,295 L531,295 L531,305 L532,315 L527,315 L522,315 L523,305 L523,305 Z M529,309 C529,307 528,306 527,306 C526,306 526,307 526,309 C526,311 526,313 527,313 C528,313 529,311 529,309 L529,309 Z M529,299 C529,298 528,298 527,298 C526,298 526,298 526,299 C526,299 526,300 527,300 C528,300 529,299 529,299 L529,299 Z M262,284 C261,284 261,281 261,278 C261,273 261,271 263,271 C264,271 264,272 264,276 C263,280 264,282 264,282 L266,282 C266,284 263,284 262,284 L262,284 Z M267,284 L267,279 C267,276 267,274 269,273 C270,272 271,270 271,269 C271,268 271,268 272,268 C272,268 273,268 273,269 C273,270 273,272 275,273 C276,274 277,276 276,279 L276,284 L272,284 L267,284 L267,284 Z M274,278 C274,275 273,275 272,275 C270,275 270,275 270,278 C270,281 270,282 272,282 C273,282 274,281 274,278 L274,278 Z M279,284 C278,283 278,283 278,282 C280,281 280,274 278,273 L278,271 C280,269 282,272 282,278 C282,284 281,285 279,284 L279,284 Z M511,284 C510,284 510,281 510,278 C510,273 510,271 512,271 C513,271 513,272 513,276 C512,279 513,281 513,281 C514,282 514,283 514,283 C513,285 513,285 511,284 L511,284 Z M516,284 L516,279 C516,276 516,274 518,273 C519,272 520,270 520,269 C520,268 520,268 521,268 C521,268 522,268 522,269 C522,270 522,272 524,273 C525,274 526,276 525,279 L525,284 L521,284 L516,284 L516,284 Z M523,278 C523,275 522,275 521,275 C519,275 519,275 519,278 C519,281 519,282 521,282 C522,282 523,281 523,278 L523,278 Z M528,284 L528,279 C529,276 528,274 528,273 C527,272 527,272 528,271 C529,270 531,273 531,278 C532,282 530,285 528,284 L528,284 Z" id="Shape" fill="#FFFFFF" sketch:type="MSShapeGroup"></path>
        </g>
    </g>
</svg>