<?xml version="1.0" encoding="UTF-8" standalone="no"?>
<svg width="724px" height="127px" viewBox="0 0 724 127" version="1.1" xmlns="http://www.w3.org/2000/svg" xmlns:xlink="http://www.w3.org/1999/xlink" xmlns:sketch="http://www.bohemiancoding.com/sketch/ns">
    <!-- Generator: Sketch 3.4 (15575) - http://www.bohemiancoding.com/sketch -->
    <title>Shape</title>
    <desc>Created with Sketch.</desc>
    <defs></defs>
    <g id="Page-1" stroke="none" stroke-width="1" fill="none" fill-rule="evenodd" sketch:type="MSPage">
        <path d="M451,123 L451,119 C451,116 447,111 443,110 C440,109 441,107 444,108 C451,110 454,115 454,122 C455,125 452,125 451,123 L451,123 Z M484,113 C483,112 482,110 482,109 C481,108 478,105 476,104 C472,102 470,101 465,101 C461,101 458,102 457,102 C455,104 455,104 454,97 C454,89 450,81 445,76 C437,70 424,68 416,72 C412,74 411,75 412,77 C413,81 409,80 408,77 C407,74 403,72 399,72 C398,72 398,72 397,76 C397,83 395,83 395,76 C395,69 393,65 389,61 C382,56 370,54 365,58 C360,61 360,60 360,52 C360,43 358,36 353,29 C344,15 336,10 317,7 C305,4 286,6 279,9 C278,10 276,11 274,11 C273,12 270,14 267,16 C263,19 262,21 261,24 C260,27 260,28 258,27 C248,24 242,25 236,30 C231,34 228,40 229,43 C232,47 230,46 224,41 C214,31 203,26 192,23 C176,20 173,20 167,19 C155,19 141,26 134,34 C128,41 125,49 124,58 C124,65 126,68 131,72 C134,74 134,75 133,76 C130,77 122,71 122,66 C121,64 119,63 108,61 C89,58 67,61 56,68 C49,72 43,78 41,81 C39,85 39,85 34,86 C32,86 28,87 27,89 C24,90 23,91 22,90 C21,89 21,88 20,87 C20,84 16,75 13,72 C11,70 8,68 5,66 C3,65 2,64 2,63 C2,62 2,62 7,65 C14,68 19,74 22,81 C24,88 25,88 26,86 C27,85 32,83 35,83 C36,83 38,81 39,79 C45,68 60,60 81,57 C88,56 105,56 109,58 C110,58 113,59 116,59 L120,59 L121,54 C122,49 125,41 128,37 C129,37 129,35 129,35 C129,32 141,24 148,21 C158,16 167,16 183,18 C201,21 215,27 223,36 C224,37 225,38 226,38 C226,38 228,36 229,34 C233,27 239,24 246,23 C249,22 251,22 252,22 C252,22 253,23 255,23 C258,23 259,23 259,21 C260,18 266,13 275,8 C285,2 299,1 319,4 C329,5 340,10 346,16 C355,24 362,38 363,48 C363,52 363,53 365,53 C373,51 379,52 385,55 C391,58 397,64 397,68 C397,69 397,70 401,70 C404,70 406,70 408,71 C410,73 410,73 413,71 C425,62 447,68 454,83 C455,86 457,90 457,93 L458,97 L465,97 C472,97 475,99 481,103 L484,106 L487,103 C489,102 491,101 491,100 C491,100 489,97 486,95 C484,92 482,88 481,85 C480,80 480,79 481,74 C483,65 486,60 493,56 C500,52 507,49 516,49 C528,49 534,51 541,59 L545,63 L546,57 C547,54 548,50 550,47 C552,42 562,32 567,29 C577,23 593,22 610,25 C619,27 620,27 636,22 C638,21 638,22 635,27 C632,33 631,41 633,43 C636,45 639,58 639,65 C639,73 639,73 641,75 C644,76 645,76 648,75 C654,72 661,74 667,78 C671,81 676,90 676,94 C676,96 676,96 682,96 C686,95 689,96 690,96 C692,97 693,97 694,95 C697,89 704,84 711,82 C718,79 722,79 722,81 L720,81 C720,81 716,82 712,84 C702,86 693,95 695,99 C696,102 694,103 691,101 C688,99 682,99 677,102 C675,103 673,104 672,104 L672,97 C672,89 670,85 664,80 C661,78 659,78 654,78 C649,78 646,78 645,79 C642,81 642,81 641,78 L639,76 C638,76 637,78 635,81 C632,88 628,93 627,92 L629,86 C637,70 637,62 631,46 L628,39 L630,34 C631,31 633,27 633,26 C634,25 633,25 630,26 C623,28 613,29 607,27 C599,25 582,26 576,28 C570,30 565,33 559,40 C552,46 549,53 548,62 C548,65 548,69 549,70 C550,75 547,73 543,66 C536,56 530,53 516,53 C501,52 491,57 486,68 C484,74 483,75 484,80 C484,84 485,87 486,88 L488,90 C488,91 489,93 491,95 C495,99 500,102 504,102 L507,102 C508,104 504,105 497,105 C489,105 488,106 488,110 C488,114 486,115 484,113 L484,113 Z M617,100 C617,99 616,98 617,98 C618,97 621,98 621,100 C621,102 619,102 617,100 L617,100 Z M393,96 C392,94 393,93 395,95 C397,98 397,99 395,99 C394,99 393,98 393,96 L393,96 Z M621,96 C620,95 620,94 620,94 C622,93 626,95 626,97 C626,98 622,98 621,96 L621,96 Z M395,89 C394,87 395,86 397,88 C398,89 398,91 397,91 C396,91 395,90 395,89 L395,89 Z M8,82 C6,80 6,79 9,81 C10,81 11,82 11,83 C11,84 9,84 8,82 L8,82 Z M546,80 C546,78 551,72 554,71 C557,69 561,70 563,72 C564,74 563,76 560,74 C558,73 558,73 554,75 C551,76 549,78 548,79 C547,82 546,82 546,80 L546,80 Z M11,79 L11,78 C12,77 14,78 14,80 C14,81 12,81 11,79 L11,79 Z M139,77 C137,76 137,74 138,74 C139,74 143,77 143,78 C143,79 140,79 139,77 L139,77 Z M144,75 L144,73 C145,72 147,73 147,75 C147,77 145,77 144,75 L144,75 Z M225,64 C225,62 232,56 235,55 L240,55 C242,55 249,58 249,59 C249,61 247,61 244,60 C239,57 234,58 229,62 C227,64 225,65 225,64 L225,64 Z M111,38 C110,36 105,33 102,30 C96,27 96,25 101,28 C103,29 104,29 105,29 L105,29 C105,29 106,31 108,33 C112,35 116,40 115,41 C115,41 113,40 111,38 L111,38 Z M109,31 C109,30 108,30 107,30 C107,31 106,30 107,30 C108,28 97,18 90,15 C83,11 86,11 94,15 C101,18 112,29 110,31 L109,31 L109,31 Z" id="Shape" stroke="#D4ECFF" stroke-width="4" fill="#D4ECFF" sketch:type="MSShapeGroup"></path>
    </g>
</svg>