<?xml version="1.0" encoding="UTF-8" standalone="no"?>
<svg width="522px" height="264px" viewBox="0 0 522 264" version="1.1" xmlns="http://www.w3.org/2000/svg" xmlns:xlink="http://www.w3.org/1999/xlink" xmlns:sketch="http://www.bohemiancoding.com/sketch/ns">
    <!-- Generator: Sketch 3.4 (15575) - http://www.bohemiancoding.com/sketch -->
    <title>Untitled</title>
    <desc>Created with Sketch.</desc>
    <defs></defs>
    <g id="Page-1" stroke="none" stroke-width="1" fill="none" fill-rule="evenodd" sketch:type="MSPage">
        <g id="mountain" sketch:type="MSLayerGroup" transform="translate(0.000000, -1.000000)" fill="#D4ECFF">
            <path d="M268,264 C266,262 270,261 289,262 C305,262 308,262 308,264 C308,265 305,265 288,265 C275,265 268,265 268,264 L268,264 Z M187,244 C185,242 187,240 191,239 C195,239 202,236 211,229 C220,223 229,218 232,218 C233,218 234,216 234,214 L234,210 L220,210 C208,210 206,209 206,208 C205,207 207,202 211,194 C216,185 217,182 216,181 L109,181 C16,181 3,180 2,179 C-1,177 2,175 7,175 C11,175 13,174 21,167 C34,157 44,150 53,145 L61,140 L62,135 C63,131 64,128 64,126 C64,122 67,117 69,118 C70,119 73,125 72,127 C71,129 72,129 73,127 C74,125 74,123 74,122 C73,120 77,113 79,114 C80,115 83,121 82,123 C81,126 82,125 88,117 C95,107 106,94 116,83 C120,78 127,69 132,62 C146,40 152,35 158,35 C160,35 162,37 169,48 C174,55 178,62 179,63 C180,65 181,64 195,51 C203,43 211,35 214,33 C217,30 224,23 230,16 C236,8 242,2 243,2 C247,1 262,10 271,19 C273,22 279,29 283,36 C287,42 293,49 295,52 L300,57 L310,47 C323,34 330,31 337,35 C339,36 345,43 352,50 C358,57 370,69 378,76 C403,98 415,111 426,128 C428,131 430,134 430,134 L430,131 C429,128 433,122 434,122 C436,122 439,128 439,133 C439,134 440,139 441,142 C442,148 442,148 446,150 C448,151 449,151 449,150 C449,150 449,148 450,146 C451,144 451,142 451,140 C450,138 454,132 455,132 C457,132 460,138 460,143 C460,144 461,149 462,152 L463,158 L474,165 C479,169 488,176 494,180 L503,189 L512,189 C518,189 521,189 522,190 L522,193 C520,194 506,195 403,195 C300,195 286,194 285,193 C283,191 285,189 287,189 C289,189 292,183 291,182 L274,182 L258,182 L264,194 C273,210 273,210 255,210 L242,210 L242,213 C242,217 242,217 247,219 C250,220 256,223 262,228 C273,236 281,239 285,239 C289,240 291,242 290,244 C288,245 281,246 238,246 C195,246 188,245 187,244 L187,244 Z M269,239 C269,238 252,227 247,225 C241,222 236,222 230,224 C225,226 209,237 208,239 C208,239 221,240 238,240 C255,240 269,239 269,239 L269,239 Z M263,203 L255,189 C251,180 248,173 248,172 C248,170 249,170 252,170 L256,169 L249,156 C242,142 241,139 246,139 L249,138 L244,128 C241,122 238,118 237,118 C237,119 234,123 232,129 L226,138 L230,139 C232,139 233,140 233,141 C234,142 230,149 227,156 L219,170 L224,170 C230,170 230,171 221,187 C217,195 214,202 214,203 C213,203 222,204 238,204 C251,204 263,203 263,203 L263,203 Z M495,188 C495,187 477,174 468,168 C438,148 412,143 387,152 C376,155 368,160 349,172 C342,177 333,183 329,185 L323,188 L409,188 L495,188 L495,188 Z M185,171 C181,169 172,163 165,158 C148,148 134,140 123,137 C112,134 97,134 85,137 C68,142 40,157 25,171 L21,174 L107,174 L192,174 L185,171 L185,171 Z M345,168 C352,164 354,162 353,162 C352,161 351,161 352,159 C352,158 353,156 353,155 L353,152 C354,150 354,149 351,148 C343,143 336,135 333,124 C330,117 330,115 333,115 C335,115 335,115 336,119 C338,125 342,132 347,137 C352,143 354,144 356,142 C357,140 358,140 359,143 C359,145 360,147 361,147 C362,147 363,142 363,139 C362,137 365,132 366,131 C369,130 372,137 373,147 C373,150 374,151 378,149 C380,148 381,147 382,145 C382,144 383,140 383,137 C385,129 388,130 389,140 L390,145 L394,144 C396,143 404,143 412,143 L426,143 L425,140 C417,125 399,104 377,85 C372,80 364,73 358,68 C353,62 348,58 348,59 C346,63 345,64 340,63 C337,62 335,62 335,63 C335,64 338,69 345,76 C354,87 359,98 358,109 C358,113 358,114 356,114 C354,114 354,113 353,108 C352,96 349,89 340,79 C337,76 332,70 331,67 L327,62 L323,63 C317,65 316,65 313,60 C311,56 311,56 309,58 C308,59 308,60 308,61 C308,62 310,64 313,67 C322,74 325,84 318,84 C317,84 315,83 314,80 C313,77 309,74 294,61 C287,55 281,47 276,39 C274,35 272,32 271,32 C271,32 269,34 268,37 C267,40 266,42 265,43 C264,43 261,42 259,41 C251,38 251,38 254,42 C258,47 260,53 259,55 C257,57 254,55 253,51 C252,48 246,40 245,40 C244,40 242,43 241,47 C237,55 235,57 233,52 C232,50 231,48 230,47 L228,44 L223,47 C218,51 217,50 217,46 C216,40 215,41 200,56 C192,63 186,70 186,71 C185,71 191,78 198,84 C212,97 217,104 224,117 L227,125 L232,117 C235,110 236,109 238,109 C239,109 242,113 248,125 C253,133 256,141 256,142 C256,143 255,144 253,144 L250,145 L257,159 L264,173 L278,173 L291,174 L293,169 C295,166 295,164 295,164 C293,163 293,161 297,153 C301,144 303,143 307,153 C310,157 310,160 310,162 C310,166 311,171 313,171 C314,171 314,168 313,167 C312,167 313,165 314,162 C316,160 317,158 317,158 C318,158 319,160 320,163 C322,166 322,167 321,167 C320,168 320,169 320,170 C321,170 322,169 323,166 C325,163 325,162 324,161 C323,161 324,159 325,156 C327,153 328,151 329,151 C329,151 330,153 332,156 C333,159 334,161 333,161 C332,162 332,163 334,166 C335,169 336,171 335,171 C334,172 334,175 335,175 C336,175 340,172 345,168 L345,168 Z M183,157 C183,155 184,151 185,149 L187,145 L189,149 C191,152 192,155 192,160 C192,161 192,163 193,163 C194,163 195,160 194,158 C194,157 194,155 195,153 L197,149 L199,153 C201,155 201,157 201,158 L201,161 C202,161 204,156 204,152 C204,147 208,139 211,139 C213,138 219,150 218,153 C217,158 219,157 223,151 L226,145 L223,144 C219,144 219,141 222,135 C223,132 224,131 223,131 C222,130 220,127 218,124 C212,111 205,101 189,85 C180,77 173,69 173,70 L171,74 C170,76 169,79 168,79 C167,79 165,77 162,75 C160,73 157,72 157,72 C156,72 150,80 148,84 C147,87 143,88 143,85 C143,84 144,81 145,78 C147,75 148,73 148,73 C148,73 146,73 143,74 C139,76 139,76 137,73 L135,71 L133,74 C132,75 126,82 120,89 C114,96 107,104 103,108 C98,115 88,130 88,131 C88,131 90,131 93,130 C102,129 117,130 127,133 C132,134 136,135 136,135 C136,135 136,133 135,131 C134,127 134,119 136,111 C137,103 138,101 140,101 C142,101 143,102 141,112 C140,117 140,123 140,126 C141,133 143,134 143,127 C142,125 145,120 146,119 C148,118 151,123 152,128 C153,137 154,140 154,143 L154,146 C155,146 161,149 168,154 C175,159 181,162 182,162 C182,162 183,160 183,157 L183,157 Z M170,65 C170,64 161,48 160,47 L160,56 C160,61 160,66 159,67 C159,68 160,69 163,71 L167,74 L169,71 C170,69 170,66 170,65 L170,65 Z M149,69 C155,66 156,63 155,53 C154,45 154,44 152,46 C151,47 148,52 144,57 C138,66 138,67 139,69 C140,72 141,72 149,69 L149,69 Z M327,50 C327,44 326,42 325,43 C314,52 313,53 316,58 L317,61 L322,60 L327,58 L327,50 L327,50 Z M345,57 C345,54 344,53 339,48 C333,40 332,40 332,50 C331,56 333,58 339,59 C344,60 344,60 345,57 L345,57 Z M239,43 C241,37 241,36 240,33 C239,31 238,28 239,23 L239,16 L235,22 L224,33 C219,39 219,40 219,42 L220,45 L224,42 C226,41 228,40 229,40 C230,40 231,42 233,45 C234,47 235,49 235,49 C236,49 237,47 239,43 L239,43 Z M266,34 C267,31 267,28 267,27 C266,24 248,10 247,11 C246,12 244,23 244,26 L244,30 C245,32 261,38 263,38 C264,38 265,36 266,34 L266,34 Z M165,231 C164,229 166,228 176,229 C183,229 185,229 185,231 C185,232 183,232 175,232 C169,232 165,232 165,231 L165,231 Z M280,219 C279,217 281,216 289,217 C295,217 297,217 297,219 C297,220 295,220 289,220 C284,220 280,220 280,219 L280,219 Z M137,208 C135,206 139,205 164,206 C185,206 189,206 189,208 C189,209 185,209 163,209 C145,209 137,209 137,208 L137,208 Z M291,208 C289,206 293,205 316,206 C337,206 340,206 340,208 C340,209 337,209 316,209 C299,209 291,209 291,208 L291,208 Z M344,208 C343,206 345,205 353,206 C358,206 360,206 360,208 C360,209 358,209 352,209 C347,209 344,209 344,208 L344,208 Z M166,190 C164,188 168,187 182,188 C194,188 196,188 196,190 C196,191 194,191 181,191 C171,191 166,191 166,190 L166,190 Z M252,105 C252,104 253,101 255,97 C258,90 258,89 258,78 C258,67 258,66 260,66 C263,65 264,68 263,81 C263,91 263,93 260,99 C257,105 256,107 254,107 C253,107 252,106 252,105 L252,105 Z" id="Shape" sketch:type="MSShapeGroup"></path>
        </g>
    </g>
</svg>